<?xml version="1.0" encoding="utf-8"?>
<!-- Generator: Adobe Illustrator 22.0.1, SVG Export Plug-In . SVG Version: 6.00 Build 0)  -->
<svg version="1.1" id="Layer_1" xmlns="http://www.w3.org/2000/svg" xmlns:xlink="http://www.w3.org/1999/xlink" x="0px" y="0px"
	 viewBox="0 0 396 90" style="enable-background:new 0 0 396 90;" xml:space="preserve">
<style type="text/css">
	.st0{fill:#4D008C;}
	.st1{fill:#13D0CA;}
</style>
<g>
	<g>
		<g>
			<path class="st0" d="M80.3,53.7c-0.2-4.8-1.7-9.4-4.5-13.8c1.2-3,1.5-6.3,0.6-9.6c-0.9-3.6-2.8-6.8-5.6-9.6
				C67.7,17.6,64.1,16,60,16c0,0-0.1,0-0.1,0c-3.8,0-7.4,1.2-11.8,3.8C43.8,22.4,40.5,26,37.9,31c0,0.1-0.1,0.2-0.1,0.3
				c-3.1,0.5-5.9,2-8.3,4.3c-2.6,2.6-4.4,5.8-5.4,9.7c-1.1,4.2-0.6,8.1,1.5,11.7c1.9,3.3,4.8,5.9,9.3,8.3c3.9,2.1,8.1,3.1,12.8,3.1
				c0.6,0,1.2,0,1.8-0.1c2.1,2.5,4.7,4.2,8,5.1c1.6,0.4,3.3,0.7,5,0.7c2,0,4-0.3,6.1-0.9c4.2-1.2,7.3-3.6,9.3-7.2
				C79.8,62.6,80.5,58.8,80.3,53.7z M46.9,23c5-3.3,9.8-3.4,13.6-0.2c3.8,3.3,6.8,7.4,8.9,12.4c1.4,3.3,1.6,6.1,0.7,8.6
				c-1.2,3.3-5.2,6.5-9.7,7.7c-1.8,0.5-3.2,0.4-4.8-0.3c1.7-0.3,3.1-1.5,3.7-3.3c1.5-4.4,0.5-8.1-3-11.1c-4.2-3.6-9.1-5.5-14.7-5.8
				c-0.8,0-1.5,0-2.3,0C41.1,27.8,43.6,25.2,46.9,23z M38.2,64.6c-5.4-2.6-7.9-6.7-7.1-11.5c0.9-5,2.9-9.7,6.1-14
				c2.1-2.9,4.4-4.5,7.1-5c3.5-0.7,8.2,1.2,11.6,4.4c1.4,1.4,2.1,2.7,2.2,4.4c-0.2-0.2-0.4-0.4-0.6-0.5c-1-0.9-2.1-1.3-3.3-1.2
				c-0.4,0-0.9,0-1.3,0.1c-4.5,0.9-7.2,3.7-8,8.3C44,55,44.9,60.2,47.4,65.2c0.3,0.6,0.7,1.2,1.1,1.8C45,67.1,41.7,66.3,38.2,64.6z
				 M71.7,63.1c-4.7,1.8-9.8,2.4-15.2,1.8c-3.6-0.4-6.1-1.5-7.9-3.6c-2.3-2.7-3.2-7.7-2-12.2c0.5-1.9,1.3-3.1,2.7-4.2
				c0,0.5-0.1,0.9,0,1.3c0,0,0,0,0,0c0,0.1,0,0.2,0,0.2c0,1,0.3,2.1,1,3c0.1,0.1,0.1,0.1,0.1,0.2c0,0,0,0,0,0
				c1.9,2.4,4.5,3.7,7.4,3.7c1.2,0,2.4-0.2,3.7-0.6c5.2-1.8,9.4-5,12.5-9.7c0.4-0.6,0.7-1.1,1-1.7c1.7,2.9,2.7,6.1,2.9,9.8
				C78.5,57.1,76.3,61.3,71.7,63.1z"/>
			<g>
				<path class="st0" d="M117.9,29.9c0.2,0.1,0.3,0.2,0.4,0.4s0.2,0.3,0.2,0.5c0,0.2,0,0.3-0.1,0.5l-2.2,3.7
					c-0.3,0.3-0.5,0.5-0.8,0.5c-0.1,0-0.2,0-0.3-0.1c-0.1,0-0.2-0.1-0.4-0.2c-0.9-0.7-1.9-1.2-3-1.6c-1.1-0.4-2.2-0.6-3.4-0.6
					c-1.5,0-2.9,0.3-4.1,0.9c-1.3,0.6-2.3,1.3-3.3,2.3c-0.9,1-1.6,2.1-2.1,3.4c-0.5,1.3-0.8,2.7-0.8,4.2c0,1.5,0.3,2.9,0.8,4.2
					c0.5,1.3,1.2,2.4,2.1,3.4c0.9,1,2,1.7,3.3,2.3c1.3,0.6,2.6,0.8,4.1,0.8c1.2,0,2.3-0.2,3.4-0.6c1.1-0.4,2.1-0.9,3-1.6
					c0.1-0.1,0.2-0.1,0.4-0.2c0.1,0,0.2-0.1,0.3-0.1c0.3,0,0.5,0.2,0.8,0.5l2.2,3.7c0.1,0.2,0.1,0.3,0.1,0.5c0,0.2-0.1,0.4-0.2,0.5
					c-0.1,0.1-0.3,0.3-0.4,0.4c-1.4,0.9-2.9,1.7-4.5,2.2c-1.6,0.5-3.3,0.8-5.1,0.8c-1.6,0-3.1-0.2-4.5-0.6c-1.4-0.4-2.8-1-4-1.7
					S97.5,57,96.5,56c-1-1-1.9-2.2-2.6-3.4c-0.7-1.2-1.3-2.6-1.7-4c-0.4-1.4-0.6-2.9-0.6-4.5c0-1.6,0.2-3.1,0.6-4.5
					c0.4-1.4,1-2.8,1.7-4.1c0.7-1.3,1.6-2.4,2.6-3.4c1-1,2.2-1.9,3.4-2.6c1.3-0.7,2.6-1.3,4-1.7c1.4-0.4,2.9-0.6,4.5-0.6
					c1.8,0,3.4,0.2,5,0.7C115,28.3,116.5,29,117.9,29.9z"/>
				<path class="st0" d="M125.6,59.6c0.1-0.3,0.2-0.6,0.3-0.8c0.1-0.3,0.2-0.5,0.3-0.7l11.9-29.7c0-0.2,0.2-0.3,0.4-0.5
					s0.5-0.3,0.8-0.3h3.6c0.4,0,0.6,0.1,0.8,0.3c0.2,0.2,0.3,0.3,0.3,0.5l0.7,1.7c0,0,11.6,29.1,11.6,29.1c0,0.1,0.1,0.3,0.1,0.4
					c0,0.1,0,0.2,0,0.3c0,0.4-0.3,0.7-1,0.7h-4.4c-0.3,0-0.6-0.1-0.8-0.2c-0.2-0.1-0.3-0.3-0.4-0.6l-0.4-1c-0.3-0.7-0.6-1.4-0.8-2.1
					c-0.3-0.7-0.6-1.4-0.8-2.1h-13.7c-0.4,1-0.8,2-1.1,2.9c-0.4,0.9-0.7,1.7-0.9,2.4c-0.2,0.5-0.6,0.8-1.2,0.8h-4.4
					c-0.3,0-0.5-0.1-0.7-0.2c-0.2-0.1-0.3-0.3-0.3-0.5C125.6,59.8,125.6,59.7,125.6,59.6z M141,36c-0.8,2-1.6,4.2-2.4,6.3
					c-0.8,2.2-1.6,4.3-2.4,6.3h9.4L141,36z"/>
				<path class="st0" d="M164.5,28.5c0-0.3,0.1-0.5,0.3-0.7c0.2-0.2,0.4-0.3,0.8-0.3h4.4c0.3,0,0.5,0.1,0.7,0.3
					c0.2,0.2,0.3,0.4,0.3,0.7v25.9h13.9c0.3,0,0.5,0.1,0.7,0.3c0.2,0.2,0.3,0.4,0.3,0.7v4.1c0,0.3-0.1,0.5-0.3,0.7
					c-0.2,0.2-0.4,0.3-0.7,0.3h-19.3c-0.6,0-1-0.3-1-1V28.5z"/>
				<path class="st0" d="M192.5,28.5c0-0.3,0.1-0.5,0.2-0.7c0.2-0.2,0.4-0.3,0.7-0.3h4.4c0.3,0,0.5,0.1,0.7,0.3
					c0.2,0.2,0.3,0.4,0.3,0.7v31c0,0.7-0.3,1-1,1h-4.4c-0.6,0-1-0.3-1-1V28.5z"/>
				<path class="st0" d="M205.1,28.5c0-0.3,0.1-0.5,0.3-0.7c0.2-0.2,0.4-0.3,0.7-0.3h23.3c0.3,0,0.5,0.1,0.7,0.2
					c0.2,0.2,0.3,0.4,0.4,0.7v3.9c0,0.3-0.1,0.6-0.3,0.8c-0.2,0.2-0.5,0.3-0.8,0.3H221v25.9c0,0.3-0.1,0.5-0.3,0.7
					c-0.2,0.2-0.4,0.3-0.8,0.3h-4.4c-0.3,0-0.5-0.1-0.7-0.3c-0.2-0.2-0.3-0.4-0.3-0.7V33.5h-8.4c-0.3,0-0.5-0.1-0.7-0.3
					c-0.2-0.2-0.3-0.5-0.3-0.8V28.5z"/>
				<path class="st0" d="M239.1,28.5c0-0.3,0.1-0.5,0.3-0.7c0.2-0.2,0.4-0.3,0.7-0.3h4.4c0.3,0,0.5,0.1,0.7,0.3
					c0.2,0.2,0.3,0.4,0.3,0.7V40h14.9V28.5c0-0.3,0.1-0.5,0.3-0.7c0.2-0.2,0.4-0.3,0.7-0.3h4.4c0.3,0,0.5,0.1,0.8,0.3
					c0.2,0.2,0.3,0.4,0.3,0.7v31c0,0.7-0.3,1-1,1h-4.4c-0.6,0-1-0.3-1-1V46.1h-14.9v13.4c0,0.7-0.4,1-1.1,1H240c-0.6,0-1-0.3-1-0.9
					V28.5z"/>
				<path class="st0" d="M277.3,28.6c0-0.7,0.3-1.1,1-1.1h21.4c0.4,0,0.7,0.1,0.8,0.3c0.2,0.2,0.2,0.5,0.2,0.8v3.9
					c0,0.3-0.1,0.5-0.3,0.7c-0.2,0.2-0.5,0.3-0.8,0.3h-15.8v6.7h12.1c0.3,0,0.5,0,0.7,0.2c0.2,0.2,0.3,0.4,0.3,0.8v4
					c0,0.3-0.1,0.5-0.2,0.7c-0.1,0.2-0.4,0.3-0.7,0.3h-12.2v8h16.3c0.4,0,0.7,0.1,0.8,0.3c0.1,0.2,0.2,0.5,0.2,0.8v4
					c0,0.6-0.3,0.9-1,0.9h-21.9c-0.3,0-0.5-0.1-0.7-0.2c-0.2-0.1-0.3-0.4-0.3-0.7V28.6z"/>
				<path class="st0" d="M309.8,28.6c0-0.7,0.3-1,1-1h13.6c1.5,0,2.9,0.3,4.2,0.8c1.3,0.6,2.4,1.3,3.4,2.3c1,1,1.7,2.1,2.3,3.4
					c0.6,1.3,0.8,2.7,0.8,4.1c0,1-0.1,2-0.4,2.9c-0.3,0.9-0.7,1.8-1.2,2.6c-0.5,0.8-1.1,1.5-1.8,2.2c-0.7,0.6-1.5,1.2-2.3,1.6
					l5.8,11.4c0.1,0.2,0.1,0.3,0.2,0.4c0,0.2,0.1,0.3,0.1,0.5c0,0.4-0.3,0.7-0.8,0.7h-5.1c-0.5,0-0.9-0.3-1.1-0.8L323,49
					c-0.2,0-0.5,0-0.8,0c-0.3,0-0.7,0-1.1,0s-1.1,0-1.9,0c-0.8,0-1.8,0-3,0v10.5c0,0.6-0.3,1-1,1h-4.5c-0.3,0-0.5-0.1-0.7-0.2
					c-0.2-0.2-0.3-0.4-0.3-0.7V28.6z M328.5,38.2c0-0.6-0.1-1.2-0.4-1.8c-0.2-0.6-0.6-1.1-1-1.6s-0.9-0.9-1.5-1.2
					c-0.6-0.3-1.2-0.5-1.9-0.5c-0.5,0-1,0-1.5,0c-0.5,0-1,0-1.5,0h-4.4v10.3h5.9c0.3,0,0.6,0,0.8,0c0.3,0,0.5,0,0.8,0
					c0.7,0,1.3-0.2,1.9-0.5c0.6-0.3,1.1-0.7,1.5-1.1c0.4-0.5,0.7-1,1-1.6C328.3,39.5,328.5,38.9,328.5,38.2z"/>
				<path class="st0" d="M341.7,59.6c0.1-0.3,0.2-0.6,0.3-0.8c0.1-0.3,0.2-0.5,0.3-0.7l11.9-29.7c0-0.2,0.2-0.3,0.4-0.5
					c0.2-0.2,0.5-0.3,0.8-0.3h3.6c0.4,0,0.6,0.1,0.8,0.3c0.2,0.2,0.3,0.3,0.3,0.5l0.7,1.7c0,0,11.7,29.2,11.7,29.3
					c0,0.1,0,0.1,0.1,0.3c0,0.1,0,0.2,0,0.3c0,0.4-0.3,0.7-1,0.7h-4.4c-0.3,0-0.6-0.1-0.8-0.2c-0.2-0.1-0.3-0.3-0.4-0.6l-0.4-1
					c-0.3-0.7-0.6-1.4-0.8-2.1c-0.3-0.7-0.6-1.4-0.8-2.1h-13.7c-0.4,1-0.8,2-1.1,2.9c-0.4,0.9-0.7,1.7-0.9,2.4
					c-0.2,0.5-0.6,0.8-1.2,0.8h-4.4c-0.3,0-0.5-0.1-0.7-0.2c-0.2-0.1-0.3-0.3-0.3-0.5C341.6,59.8,341.7,59.7,341.7,59.6z M357.1,36
					c-0.8,2-1.6,4.2-2.4,6.3c-0.8,2.2-1.6,4.3-2.4,6.3h9.4L357.1,36z"/>
			</g>
			<g>
				<path class="st1" d="M47.8,60.9c0.5,1.6,2.1,4.4,4.5,6c2.1,1.4,5.6,2.1,13.1,1.1c7.5-1,9.7-3.9,10.9-6.2c1-2,1.5-5.6,1.7-7.1
					c0.1-0.4,0.1-0.7,0.1-0.7c0,0-0.3,0.9-0.4,1.3c-0.7,2-2.1,4.1-3.4,5.1c-0.8,0.6-1.7,1.1-2.7,1.5c-0.4,0.2-1,0.4-1.6,0.6
					c-4.4,1.4-9,1.8-13.6,1.3c-3-0.3-5.9-1.3-8-3.6c-0.7-0.7-1.3-1.7-1.7-2.7C46.7,57.4,47.2,59.2,47.8,60.9z"/>
				<path class="st1" d="M70.1,44.9c1.1-1.2,2.8-3.9,3.1-6.8c0.2-2.5-0.8-6-5.2-12.1c-4.4-6.1-8-6.7-10.6-6.6
					c-2.2,0.1-5.6,1.3-7,1.9c-0.4,0.2-0.7,0.3-0.7,0.3c0,0,0.9-0.2,1.4-0.2c2.1-0.3,4.7-0.1,6.1,0.5c0.9,0.4,1.8,0.9,2.6,1.6
					c0.4,0.3,0.8,0.7,1.3,1.2c3.3,3.2,5.8,7,7.6,11.3c1.1,2.8,1.7,5.8,0.6,8.7c-0.3,0.9-0.9,1.9-1.6,2.7
					C67.5,47.5,68.9,46.1,70.1,44.9z"/>
			</g>
		</g>
		<path class="st1" d="M45.3,33.5c-1.6-0.4-4.8-0.5-7.4,0.8c-2.3,1.1-4.7,3.7-7.8,10.6c-3,6.9-1.7,10.3-0.3,12.5
			c1.2,1.9,4,4.2,5.2,5.1c0.3,0.3,0.6,0.4,0.6,0.4c0,0-0.6-0.7-0.9-1c-1.3-1.7-2.4-4-2.6-5.5c-0.1-1-0.1-2,0.1-3.1
			c0.1-0.5,0.2-1.1,0.4-1.7c1.1-4.5,3.1-8.6,5.9-12.3c1.8-2.4,4.1-4.4,7.2-4.9c1-0.2,2.1-0.2,3.2,0C48.9,34.4,47,33.9,45.3,33.5z"/>
	</g>
</g>
</svg>
